<svg class="links__link-icon" xmlns="http://www.w3.org/2000/svg" viewBox="0 0 100 100">
                    <path fill="#78a2d2" d="M50 15A35 35 0 1 0 50 85A35 35 0 1 0 50 15Z"></path>
                    <path fill="#fefdef" d="M50,20c-16.542,0-30,13.458-30,30s13.458,30,30,30c3.781,0,7.47-0.695,10.962-2.067l-2.924-7.446C55.479,71.491,52.775,72,50,72c-12.131,0-22-9.869-22-22s9.869-22,22-22s22,9.869,22,22v3c0,1.93-1.57,3.5-3.5,3.5S65,54.93,65,53v-3c0-8.271-6.729-15-15-15s-15,6.729-15,15s6.729,15,15,15c3.826,0,7.438-1.429,10.227-4.036c2.169,2.253,5.155,3.536,8.273,3.536C74.841,64.5,80,59.341,80,53v-3C80,33.458,66.542,20,50,20z M50,57c-3.859,0-7-3.14-7-7s3.141-7,7-7s7,3.14,7,7S53.859,57,50,57z"></path>
                    <path fill="#1f212b" d="M50,86c-19.851,0-36-16.149-36-36s16.149-36,36-36s36,16.149,36,36S69.851,86,50,86z M50,16c-18.748,0-34,15.252-34,34s15.252,34,34,34s34-15.252,34-34S68.748,16,50,16z"></path>
                    <path fill="#1f212b" d="M50,80c-0.512,0-1.02-0.013-1.525-0.038c-0.275-0.014-0.488-0.249-0.474-0.524c0.013-0.276,0.225-0.486,0.524-0.475C49.014,78.987,49.506,79,50,79l0.492-0.004c0.003,0,0.006,0,0.008,0c0.272,0,0.496,0.219,0.5,0.493c0.004,0.276-0.217,0.503-0.492,0.507L50,80z M52.499,79.896c-0.257,0-0.476-0.197-0.497-0.458c-0.023-0.275,0.181-0.517,0.456-0.54c2.627-0.22,5.205-0.797,7.672-1.717l-2.193-5.586C55.399,72.528,52.732,73,50,73c-12.683,0-23-10.318-23-23c0-5.417,1.927-10.681,5.427-14.823c0.179-0.211,0.494-0.237,0.704-0.059c0.211,0.178,0.238,0.494,0.06,0.705C29.844,39.785,28,44.819,28,50c0,12.131,9.869,22,22,22c2.775,0,5.479-0.509,8.038-1.513c0.256-0.1,0.547,0.025,0.648,0.283l2.559,6.516c0.048,0.124,0.046,0.261-0.008,0.382c-0.053,0.122-0.151,0.217-0.275,0.266c-2.697,1.059-5.53,1.719-8.42,1.961C52.527,79.896,52.514,79.896,52.499,79.896z M45.501,79.657c-0.025,0-0.051-0.002-0.077-0.006C30.93,77.424,20,64.677,20,50c0-16.542,13.458-30,30-30s30,13.458,30,30v3c0,6.341-5.159,11.5-11.5,11.5c-3.118,0-6.104-1.282-8.273-3.536C57.438,63.571,53.826,65,50,65c-8.271,0-15-6.729-15-15s6.729-15,15-15c3.415,0,6.635,1.123,9.311,3.248c0.217,0.172,0.253,0.486,0.081,0.703c-0.172,0.216-0.486,0.253-0.702,0.081C56.191,37.048,53.187,36,50,36c-7.72,0-14,6.28-14,14s6.28,14,14,14c3.733,0,7.247-1.458,9.894-4.104c0.098-0.097,0.244-0.153,0.369-0.146c0.139,0.004,0.269,0.065,0.359,0.169c2.003,2.276,4.874,3.581,7.878,3.581C74.29,63.5,79,58.79,79,53v-3c0-15.991-13.01-29-29-29S21,34.009,21,50c0,14.188,10.565,26.51,24.576,28.663c0.272,0.042,0.46,0.297,0.418,0.57C45.956,79.48,45.743,79.657,45.501,79.657z M50,58c-4.411,0-8-3.589-8-8s3.589-8,8-8s8,3.589,8,8S54.411,58,50,58z M50,43c-3.859,0-7,3.14-7,7s3.141,7,7,7s7-3.14,7-7S53.859,43,50,43z M68.5,57.5c-2.481,0-4.5-2.019-4.5-4.5v-3c0-1.141-0.139-2.278-0.412-3.379c-0.066-0.268,0.097-0.54,0.365-0.606c0.269-0.067,0.539,0.098,0.605,0.365C64.852,47.56,65,48.778,65,50v3c0,1.93,1.57,3.5,3.5,3.5S72,54.93,72,53v-3c0-12.131-9.869-22-22-22c-3.243,0-6.368,0.692-9.288,2.059c-0.248,0.116-0.548,0.009-0.665-0.241c-0.117-0.25-0.009-0.548,0.241-0.665C43.342,27.724,46.609,27,50,27c12.683,0,23,10.318,23,23v3C73,55.481,70.981,57.5,68.5,57.5z M63.417,45c-0.196,0-0.382-0.116-0.462-0.309c-0.136-0.329-0.283-0.651-0.441-0.967c-0.124-0.247-0.025-0.547,0.222-0.671c0.244-0.124,0.546-0.025,0.671,0.222c0.17,0.337,0.327,0.682,0.473,1.033c0.105,0.255-0.016,0.548-0.271,0.653C63.546,44.988,63.48,45,63.417,45z M61.74,42c-0.154,0-0.307-0.072-0.404-0.207c-0.242-0.333-0.498-0.655-0.768-0.965c-0.182-0.208-0.159-0.524,0.049-0.706c0.209-0.181,0.524-0.159,0.705,0.049c0.289,0.333,0.564,0.677,0.822,1.034c0.162,0.224,0.112,0.536-0.11,0.698C61.945,41.969,61.843,42,61.74,42z"></path>
</svg>